<svg xmlns="http://www.w3.org/2000/svg" width="72" height="72" fill="none" viewBox="0 0 72 72"><path fill="#D36" fill-rule="evenodd" d="M36.4384 0C36.6331 0 36.825 0.00548788 37.0169 0.00823182C43.5235 4.71957 45.9994 10.7315 45.3715 17.7451L36.2656 8.72847L26.5401 18.3597C20.1404 14.027 15.0926 12.1584 13.3158 13.92C11.539 15.6789 13.4255 20.6756 17.8016 27.0141L9.2934 35.438C6.31019 36.5602 3.30505 37.7786 0.324587 39.049C0.234103 38.009 0.182007 36.9581 0.182007 35.8962C0.182007 16.0713 16.4142 0 36.4384 0Z" clip-rule="evenodd"/><path fill="#26356A" fill-rule="evenodd" d="M0.00382667 35.5505C0.00656859 35.3584 0.0147943 35.1691 0.0202782 34.977C4.87347 28.6056 10.9825 26.2403 18.0539 26.9647L8.81909 35.8468L18.4021 45.6152C13.9328 51.8879 11.975 56.8599 13.7271 58.6435C15.4765 60.4298 20.5518 58.6352 27.0144 54.3931L35.3965 62.9377C36.4905 65.9094 37.675 68.9003 38.9171 71.872C37.8642 71.9461 36.8031 71.979 35.7283 71.9653C15.7095 71.6772 -0.284075 55.3754 0.00382667 35.5505Z" clip-rule="evenodd"/><path fill="#FBF2F4" fill-rule="evenodd" d="M35.5637 71.9982C35.3691 71.9982 35.1771 71.9955 34.9852 71.9927C28.4786 67.2786 26.0027 61.2667 26.6306 54.2532L35.7365 63.2697L45.4593 53.6413C51.859 57.9712 56.9096 59.8398 58.6863 58.081C60.4631 56.3193 58.5767 51.3226 54.2006 44.9869L62.7087 36.563C65.6919 35.438 68.6971 34.2224 71.6775 32.9492C71.768 33.9892 71.8174 35.0401 71.8174 36.1047C71.8174 55.927 55.5852 71.9982 35.5637 71.9982Z" clip-rule="evenodd"/><path fill="#AEB9F4" fill-rule="evenodd" d="M71.9956 36.4477C71.9929 36.6398 71.9874 36.8291 71.9819 37.0212C67.1287 43.3954 61.0197 45.7579 53.9483 45.0363L63.1831 36.1514L53.6001 26.383C58.0667 20.1103 60.0272 15.1383 58.2751 13.3547C56.523 11.5712 51.4504 13.3657 44.9877 17.6051L36.603 9.06048C35.5117 6.09154 34.3272 3.0979 33.0851 0.12896C34.1352 0.05213 35.1991 0.0192027 36.2712 0.0356663C56.2927 0.321036 72.2863 16.6255 71.9956 36.4477Z" clip-rule="evenodd"/><path fill="#C52D5B" fill-rule="evenodd" d="M30.1183 35.6191L35.5473 30.2437C35.901 29.8952 36.4768 29.8952 36.8305 30.2437L42.2595 35.6191C42.6132 35.9675 42.6132 36.541 42.2595 36.8895L36.8305 42.2649C36.4796 42.6161 35.901 42.6161 35.5473 42.2649L30.1183 36.8895C29.7646 36.541 29.7646 35.9675 30.1183 35.6191Z" clip-rule="evenodd"/></svg>