<svg xmlns="http://www.w3.org/2000/svg" width="100" height="18" fill="none" viewBox="0 0 100 18"><path fill-rule="evenodd" stroke="#000" stroke-width="2" d="M38.9012 8.95061C38.9012 12.7894 35.7893 15.9012 31.9506 15.9012C28.1119 15.9012 25 12.7894 25 8.95061C25 5.11189 28.1119 2 31.9506 2C35.7893 2 38.9012 5.11189 38.9012 8.95061Z" clip-rule="evenodd"/><path fill="#000" fill-rule="evenodd" d="M34.8268 7.21439L32.9885 7.13825L34.237 5.78614L33.7347 5.28382L32.381 6.52979L32.3077 4.69092H31.5972L31.5211 6.52916L30.1691 5.28071L29.6666 5.78309L30.9127 7.13672L29.0737 7.21006V7.92049L30.912 7.99663L29.6636 9.34874L30.166 9.85116L31.4988 8.62423L31.5568 11.6023L30.4935 11.68V12.3417L31.5728 12.4236L31.5929 13.458H32.3034L32.3242 12.4251L33.4148 12.3424V11.6808L32.3409 11.6022L32.4011 8.62565L33.7316 9.85417L34.234 9.3518L32.988 7.99816L34.8268 7.92482V7.21439Z" clip-rule="evenodd"/><path fill="#000" fill-rule="evenodd" d="M50.414 11.6611C50.1498 11.8121 49.829 11.8876 49.4421 11.8876C48.5268 11.8876 48.0846 11.3588 47.8946 10.8308C47.7469 10.4202 47.7437 10.1461 47.7437 9.91966V7.08463H49.0741V9.85882C49.0741 10.3212 49.3572 10.7364 49.9139 10.7364C50.4801 10.7364 50.8764 10.34 50.8764 9.9155V7.0752H52.1974V11.7555H51.049L50.9141 11.1799C50.8481 11.3403 50.6877 11.5007 50.414 11.6611Z" clip-rule="evenodd"/><path fill="#000" fill-rule="evenodd" d="M54.4209 7.10334L54.575 7.76384C54.9053 7.29204 55.3015 7.02783 55.7733 6.9712C56.6887 6.858 57.3209 7.26373 57.5851 7.80159C57.7266 8.09411 57.7926 8.59422 57.7926 9.30191V11.7553H56.5188V9.24528C56.5188 8.41495 56.2828 8.09411 55.5658 8.09411C55.1034 8.09411 54.641 8.58478 54.641 9.42455V11.7553H53.3672V7.10334H54.4209Z" clip-rule="evenodd"/><path fill="#000" fill-rule="evenodd" d="M62.3997 9.40545C62.3997 9.81118 62.2771 10.1415 62.0317 10.3868C61.7958 10.6321 61.5033 10.7548 61.1636 10.7548C60.9771 10.7548 60.8049 10.7176 60.6468 10.6436L62.3343 8.95612C62.3777 9.09352 62.3997 9.24274 62.3997 9.40545ZM59.918 9.40545C59.918 9.01855 60.0407 8.7072 60.286 8.45243C60.5408 8.19766 60.8334 8.07496 61.1636 8.07496C61.3516 8.07496 61.5272 8.11482 61.689 8.19607L59.9892 9.89591C59.9418 9.74749 59.918 9.58382 59.918 9.40545ZM64.0004 7.29003L63.2977 6.5874L62.5411 7.34397C62.1383 7.069 61.6761 6.93318 61.1542 6.93318C60.4559 6.93318 59.8709 7.16913 59.3896 7.65036C58.9084 8.13159 58.6725 8.7072 58.6725 9.39596C58.6725 9.92064 58.8097 10.3849 59.0877 10.7974L58.4111 11.4739L59.1138 12.1767L59.7838 11.5067C60.1808 11.7803 60.6363 11.9154 61.1542 11.9154C61.843 11.9154 62.428 11.6701 62.9092 11.17C63.3905 10.6698 63.6264 10.0849 63.6264 9.39596C63.6264 8.889 63.4981 8.44352 63.2387 8.05166L64.0004 7.29003Z" clip-rule="evenodd"/><path fill="#000" fill-rule="evenodd" d="M45.2764 5.72461V9.50011C45.2764 10.2078 44.8707 10.6324 44.3422 10.6324C43.946 10.6324 43.6232 10.4007 43.3837 9.83877L42.1968 10.521C42.6085 11.4486 43.3728 11.9158 44.4838 11.9158C45.0971 11.9158 45.6161 11.6798 46.0218 11.2175C46.4276 10.7457 46.6352 10.1512 46.6352 9.44348L46.6117 5.72461H45.2764Z" clip-rule="evenodd"/></svg>