<svg xmlns="http://www.w3.org/2000/svg" xmlns:xlink="http://www.w3.org/1999/xlink" width="141" height="52" version="1.1" viewBox="0 0 141 52"><title>LOGO NEW</title><g id="Symbols" fill="none" fill-rule="evenodd" stroke="none" stroke-width="1"><g id="LOGO-NEW" transform="translate(1.000000, 1.000000)"><path id="Fill-1" stroke="#FFF" stroke-width="2" d="M49.9018416,24.9509208 C49.9018416,38.7311351 38.7309458,49.9018416 24.9509208,49.9018416 C11.1708959,49.9018416 0,38.7311351 0,24.9509208 C0,11.1708959 11.1708959,0 24.9509208,0 C38.7309458,0 49.9018416,11.1708959 49.9018416,24.9509208"/><polygon id="Fill-3" fill="#FFF" points="35.276 18.717 28.677 18.444 33.159 13.59 31.356 11.787 26.496 16.26 26.233 9.659 23.683 9.659 23.409 16.257 18.556 11.776 16.752 13.579 21.225 18.438 14.624 18.702 14.624 21.252 21.223 21.525 16.741 26.379 18.545 28.182 23.329 23.778 23.537 34.468 19.721 34.748 19.721 37.123 23.595 37.417 23.667 41.13 26.217 41.13 26.292 37.422 30.207 37.125 30.207 34.75 26.352 34.468 26.568 23.783 31.344 28.193 33.148 26.39 28.675 21.531 35.276 21.267"/><path id="Fill-5" fill="#FFF" d="M91.2289892,34.6796128 C90.2805419,35.2215015 89.1288153,35.4927298 87.7399296,35.4927298 C84.4543386,35.4927298 82.8669055,33.5943211 82.1849547,31.6989407 C81.6546116,30.2250714 81.6430659,29.24123 81.6430659,28.4283022 L81.6430659,18.2512792 L86.418993,18.2512792 L86.418993,28.2098811 C86.418993,29.8698058 87.4352,31.3601419 89.4337342,31.3601419 C91.4661483,31.3601419 92.8887246,29.9373763 92.8887246,28.4133496 L92.8887246,18.2173993 L97.6309611,18.2173993 L97.6309611,35.0184115 L93.5085939,35.0184115 L93.0242441,32.9523068 C92.787085,33.5280755 92.2113163,34.1038441 91.2289892,34.6796128"/><path id="Fill-7" fill="#FFF" d="M105.61412,18.3191525 L106.167365,20.6901761 C107.352972,18.9965608 108.775548,18.0481135 110.469163,17.8448342 C113.754944,17.438465 116.024328,18.8949211 116.972775,20.8256956 C117.480784,21.8757825 117.717943,23.6710375 117.717943,26.2114605 L117.717943,35.0185251 L113.145106,35.0185251 L113.145106,26.0081812 C113.145106,23.0275091 112.298109,21.8757825 109.723995,21.8757825 C108.064071,21.8757825 106.404524,23.6371576 106.404524,26.6517096 L106.404524,35.0185251 L101.831687,35.0185251 L101.831687,18.3191525 L105.61412,18.3191525 Z"/><path id="Fill-9" fill="#FFF" d="M134.254049,26.5841391 C134.254049,28.0405953 133.813799,29.2262017 132.933112,30.1068893 C132.086115,30.9875768 131.036217,31.4280152 129.81692,31.4280152 C129.147272,31.4280152 128.529106,31.2943884 127.961666,31.028649 L134.01935,24.9711541 C134.175122,25.4643997 134.254049,26.0000425 134.254049,26.5841391 L134.254049,26.5841391 Z M125.345534,26.5841391 C125.345534,25.1952534 125.785972,24.077596 126.66647,23.1630286 C127.581227,22.2484612 128.631314,21.8080228 129.81692,21.8080228 C130.491489,21.8080228 131.122147,21.9511132 131.702837,22.242783 L125.600863,28.3447571 C125.430706,27.8119534 125.345534,27.2244499 125.345534,26.5841391 L125.345534,26.5841391 Z M140,18.9903148 L137.477558,16.468062 L134.761679,19.1839411 C133.315822,18.1968821 131.656465,17.7093147 129.782851,17.7093147 C127.276308,17.7093147 125.176134,18.5563116 123.448639,20.2838068 C121.721144,22.011302 120.874336,24.077596 120.874336,26.55007 C120.874336,28.4335262 121.367014,30.1000754 122.364672,31.5809478 L119.93611,34.0095104 L122.458362,36.5321417 L124.863455,34.127049 C126.28887,35.1093762 127.924,35.5942937 129.782851,35.5942937 C132.255514,35.5942937 134.355688,34.7136062 136.083183,32.9183513 C137.810679,31.122907 138.657675,29.0231117 138.657675,26.55007 C138.657675,24.7302095 138.196985,23.1310414 137.265951,21.7243641 L140,18.9903148 Z"/><path id="Fill-11" fill="#FFF" d="M72.7870552,13.3697756 L72.7870552,26.9228622 C72.7870552,29.4632852 71.3305991,30.9875011 69.4335152,30.9875011 C68.0111282,30.9875011 66.8525878,30.155646 65.9929096,28.138563 L61.7319945,30.5877564 C63.2100278,33.9172587 65.9535408,35.5944073 69.9419026,35.5944073 C72.1435268,35.5944073 74.0063523,34.7474104 75.4629977,33.0876749 C76.9196432,31.3940596 77.6648112,29.2600059 77.6648112,26.7195829 L77.5803954,13.3697756 L72.7870552,13.3697756 Z"/></g></g></svg>